<?xml version="1.0" encoding="UTF-8"?><svg xmlns="http://www.w3.org/2000/svg" xmlns:xlink="http://www.w3.org/1999/xlink" fill-opacity="1" color-rendering="auto" color-interpolation="auto" text-rendering="auto" stroke="black" stroke-linecap="square" width="669" stroke-miterlimit="10" shape-rendering="auto" stroke-opacity="1" fill="black" stroke-dasharray="none" font-weight="normal" stroke-width="1" height="458" font-family="'Dialog'" font-style="normal" stroke-linejoin="miter" font-size="12px" stroke-dashoffset="0" image-rendering="auto">
  <!--Generated by ySVG 2.5-->
  <defs id="genericDefs"/>
  <g>
    <g fill="white" text-rendering="geometricPrecision" shape-rendering="geometricPrecision" transform="translate(-19,-154)" stroke="white">
      <rect x="19" width="669" height="458" y="154" clip-path="url(#clipPath2)" stroke="none"/>
    </g>
    <g fill="white" text-rendering="geometricPrecision" shape-rendering="geometricPrecision" transform="matrix(1,0,0,1,-19,-154)" stroke="white">
      <rect x="536" width="137" height="212" y="297" clip-path="url(#clipPath2)" stroke="none"/>
    </g>
    <g text-rendering="geometricPrecision" stroke-miterlimit="1.45" shape-rendering="geometricPrecision" transform="matrix(1,0,0,1,-19,-154)" stroke-linecap="butt">
      <rect fill="none" x="536" width="137" height="212" y="297" clip-path="url(#clipPath2)"/>
      <text x="563.416" font-size="14px" y="483.5586" clip-path="url(#clipPath2)" font-family="sans-serif" stroke="none" font-weight="bold" xml:space="preserve">Kubernetes</text>
      <text x="578.8071" font-size="14px" y="500.0469" clip-path="url(#clipPath2)" font-family="sans-serif" stroke="none" font-weight="bold" xml:space="preserve">Worker</text>
    </g>
    <g fill="white" text-rendering="geometricPrecision" shape-rendering="geometricPrecision" transform="matrix(1,0,0,1,-19,-154)" stroke="white">
      <rect x="369" width="137" height="212" y="297" clip-path="url(#clipPath2)" stroke="none"/>
    </g>
    <g text-rendering="geometricPrecision" stroke-miterlimit="1.45" shape-rendering="geometricPrecision" transform="matrix(1,0,0,1,-19,-154)" stroke-linecap="butt">
      <rect fill="none" x="369" width="137" height="212" y="297" clip-path="url(#clipPath2)"/>
      <text x="396.416" font-size="14px" y="483.5586" clip-path="url(#clipPath2)" font-family="sans-serif" stroke="none" font-weight="bold" xml:space="preserve">Kubernetes</text>
      <text x="411.8071" font-size="14px" y="500.0469" clip-path="url(#clipPath2)" font-family="sans-serif" stroke="none" font-weight="bold" xml:space="preserve">Worker</text>
    </g>
    <g fill="white" text-rendering="geometricPrecision" shape-rendering="geometricPrecision" transform="matrix(1,0,0,1,-19,-154)" stroke="white">
      <rect x="202" width="137" height="212" y="297" clip-path="url(#clipPath2)" stroke="none"/>
    </g>
    <g text-rendering="geometricPrecision" stroke-miterlimit="1.45" shape-rendering="geometricPrecision" transform="matrix(1,0,0,1,-19,-154)" stroke-linecap="butt">
      <rect fill="none" x="202" width="137" height="212" y="297" clip-path="url(#clipPath2)"/>
      <text x="229.416" font-size="14px" y="483.5586" clip-path="url(#clipPath2)" font-family="sans-serif" stroke="none" font-weight="bold" xml:space="preserve">Kubernetes</text>
      <text x="244.8071" font-size="14px" y="500.0469" clip-path="url(#clipPath2)" font-family="sans-serif" stroke="none" font-weight="bold" xml:space="preserve">Worker</text>
    </g>
    <g fill="white" text-rendering="geometricPrecision" shape-rendering="geometricPrecision" transform="matrix(1,0,0,1,-19,-154)" stroke="white">
      <rect x="202" width="137" height="73" y="524" clip-path="url(#clipPath2)" stroke="none"/>
    </g>
    <g text-rendering="geometricPrecision" stroke-miterlimit="1.45" shape-rendering="geometricPrecision" transform="matrix(1,0,0,1,-19,-154)" stroke-linecap="butt">
      <rect fill="none" x="202" width="137" height="73" y="524" clip-path="url(#clipPath2)"/>
      <text x="251.9097" font-size="14px" y="565.791" clip-path="url(#clipPath2)" font-family="sans-serif" stroke="none" font-weight="bold" xml:space="preserve">Node</text>
    </g>
    <g fill="rgb(255,204,0)" text-rendering="geometricPrecision" shape-rendering="geometricPrecision" transform="matrix(1,0,0,1,-19,-154)" stroke="rgb(255,204,0)">
      <rect x="213" width="49.5" height="30" y="280" clip-path="url(#clipPath2)" stroke="none"/>
    </g>
    <g text-rendering="geometricPrecision" stroke-miterlimit="1.45" shape-rendering="geometricPrecision" transform="matrix(1,0,0,1,-19,-154)" stroke-linecap="butt">
      <rect fill="none" x="213" width="49.5" height="30" y="280" clip-path="url(#clipPath2)"/>
      <text x="222.9673" font-size="14px" y="292.0469" clip-path="url(#clipPath2)" font-family="sans-serif" stroke="none" font-weight="bold" xml:space="preserve">Port</text>
      <text x="214.6616" font-size="14px" y="308.5352" clip-path="url(#clipPath2)" font-family="sans-serif" stroke="none" font-weight="bold" xml:space="preserve">30000</text>
    </g>
    <g text-rendering="geometricPrecision" shape-rendering="geometricPrecision" transform="matrix(1.2163,0,0,0.7356,253.8159,15.3531)">
      <g clip-path="url(#clipPath3)">
        <svg xmlns:svg="http://www.w3.org/2000/svg" xmlns:sodipodi="http://sodipodi.sourceforge.net/DTD/sodipodi-0.dtd" xmlns:inkscape="http://www.inkscape.org/namespaces/inkscape" xmlns:dc="http://purl.org/dc/elements/1.1/" xmlns:cc="http://web.resource.org/cc/" xmlns:rdf="http://www.w3.org/1999/02/22-rdf-syntax-ns#" opacity="1" writing-mode="lr-tb" stop-color="rgb(0, 0, 0)" shape-rendering="auto" glyph-orientation-horizontal="0deg" color-profile="auto" lighting-color="rgb(255, 255, 255)" color="rgb(0, 0, 0)" font-weight="400" alignment-baseline="auto" font-style="normal" version="1.0" color-interpolation-filters="linearrgb" text-anchor="start" stroke-linecap="butt" color-interpolation="srgb" font-variant="normal" word-spacing="normal" fill-opacity="1" text-rendering="auto" clip-path="none" text-decoration="none" letter-spacing="normal" glyph-orientation-vertical="auto" display="inline" font-size-adjust="none" overflow="visible" fill="rgb(0, 0, 0)" font-stretch="normal" stroke-dasharray="none" inkscape:version="0.45.1" id="svg1.svg2" stroke-miterlimit="4" stop-opacity="1" color-rendering="auto" font-size="12" sodipodi:docbase="C:\Daten\alberts\projects\yfx" pointer-events="visiblepainted" mask="none" direction="ltr" baseline-shift="baseline" sodipodi:docname="uml_actor.svg" enable-background="accumulate" fill-rule="nonzero" image-rendering="auto" stroke-dashoffset="0" inkscape:output_extension="org.inkscape.output.svg.inkscape" marker-end="none" width="41" clip="auto" cursor="auto" stroke="none" filter="none" visibility="visible" kerning="auto" stroke-width="1" font-family="&quot;Arial&quot;,&quot;Helvetica&quot;,sans-serif" flood-opacity="1" clip-rule="nonzero" src="none" height="68.997391" unicode-bidi="normal" sodipodi:version="0.32" stroke-linejoin="miter" stroke-opacity="1" flood-color="rgb(0, 0, 0)" dominant-baseline="auto" marker-start="none" marker-mid="none">
  <defs id="svg1.defs4">
            <clipPath clipPathUnits="userSpaceOnUse" id="clipPath1">
              <path d="M0 0 L669 0 L669 458 L0 458 L0 0 Z"/>
            </clipPath>
            <clipPath clipPathUnits="userSpaceOnUse" id="clipPath2">
              <path d="M19 154 L688 154 L688 612 L19 612 L19 154 Z"/>
            </clipPath>
            <clipPath clipPathUnits="userSpaceOnUse" id="clipPath3">
              <path d="M-208.6791 -20.873 L341.3508 -20.873 L341.3508 601.7903 L-208.6791 601.7903 L-208.6791 -20.873 Z"/>
            </clipPath>
          </defs>
  
  <metadata id="svg1.metadata7">
    
  </metadata>
  <g inkscape:groupmode="layer" id="svg1.layer1" transform="translate(-29.5,-42.959476)" inkscape:label="Ebene 1">
    <a id="svg1.a3142" transform="matrix(1.0873906,0,0,1,-4.4741999,0)">
      <path transform="translate(11.586889,5.2908993)" style="fill:none;fill-rule:evenodd;stroke:#000000;stroke-width:1px;stroke-linecap:butt;stroke-linejoin:miter;stroke-opacity:1" sodipodi:cx="38.509369" sodipodi:cy="47.36993" sodipodi:rx="8.5197716" id="svg1.path2160" d="M 47.02914 47.36993 A 8.5197716 9.2013531 0 1 1  29.989597,47.36993 A 8.5197716 9.2013531 0 1 1  47.02914 47.36993 z" sodipodi:ry="9.2013531" sodipodi:type="arc"/>
    </a>
    <path style="fill:none" sodipodi:cx="43.962021" sodipodi:cy="48.392303" d="M 47.71072 48.392303 A 3.7486994 0 0 1 1  40.213321,48.392303 A 3.7486994 0 0 1 1  47.71072 48.392303 z" id="svg1.path3134" sodipodi:rx="3.7486994" sodipodi:ry="0" sodipodi:type="arc"/>
    <path style="fill:none;fill-rule:evenodd;stroke:#000000;stroke-width:1.24319649px;stroke-linecap:butt;stroke-linejoin:miter;stroke-opacity:1" d="M 50,61.33709 C 50,91.363211 50,92.247838 50,92.247838" id="svg1.path3136"/>
    <path style="fill:none;fill-rule:evenodd;stroke:#000000;stroke-width:1px;stroke-linecap:butt;stroke-linejoin:miter;stroke-opacity:1" d="M 69.760668,72.362183 C 69.760668,72.362183 69.760668,72.362183 50.239332,72.362183 C 30.239332,72.362183 30.239332,72.362183 30.239332,72.362183 L 30.239332,72.362183" id="svg1.path3138"/>
    <path style="fill:none;fill-rule:evenodd;stroke:#000000;stroke-width:1px;stroke-linecap:butt;stroke-linejoin:miter;stroke-opacity:1" d="M 30,111.45687 C 30,111.45687 30,111.45687 50,92.013532 C 70,111.45687 70,111.45687 70,111.45687" id="svg1.path3140"/>
  </g>
</svg>
      </g>
    </g>
    <g fill="white" text-rendering="geometricPrecision" shape-rendering="geometricPrecision" transform="matrix(1,0,0,1,-19,-154)" stroke="white">
      <rect x="369" width="137" height="73" y="524" clip-path="url(#clipPath2)" stroke="none"/>
    </g>
    <g text-rendering="geometricPrecision" stroke-miterlimit="1.45" shape-rendering="geometricPrecision" transform="matrix(1,0,0,1,-19,-154)" stroke-linecap="butt">
      <rect fill="none" x="369" width="137" height="73" y="524" clip-path="url(#clipPath2)"/>
      <text x="418.9097" font-size="14px" y="565.791" clip-path="url(#clipPath2)" font-family="sans-serif" stroke="none" font-weight="bold" xml:space="preserve">Node</text>
    </g>
    <g fill="white" text-rendering="geometricPrecision" shape-rendering="geometricPrecision" transform="matrix(1,0,0,1,-19,-154)" stroke="white">
      <rect x="536" width="137" height="73" y="524" clip-path="url(#clipPath2)" stroke="none"/>
    </g>
    <g text-rendering="geometricPrecision" stroke-miterlimit="1.45" shape-rendering="geometricPrecision" transform="matrix(1,0,0,1,-19,-154)" stroke-linecap="butt">
      <rect fill="none" x="536" width="137" height="73" y="524" clip-path="url(#clipPath2)"/>
      <text x="585.9097" font-size="14px" y="565.791" clip-path="url(#clipPath2)" font-family="sans-serif" stroke="none" font-weight="bold" xml:space="preserve">Node</text>
    </g>
    <g fill="rgb(255,204,0)" text-rendering="geometricPrecision" shape-rendering="geometricPrecision" transform="matrix(1,0,0,1,-19,-154)" stroke="rgb(255,204,0)">
      <circle r="15" clip-path="url(#clipPath2)" cx="437.5" cy="428" stroke="none"/>
    </g>
    <g text-rendering="geometricPrecision" stroke-miterlimit="1.45" shape-rendering="geometricPrecision" transform="matrix(1,0,0,1,-19,-154)" stroke-linecap="butt">
      <circle fill="none" r="15" clip-path="url(#clipPath2)" cx="437.5" cy="428"/>
      <text x="423.0693" font-size="14px" y="433.291" clip-path="url(#clipPath2)" font-family="sans-serif" stroke="none" font-weight="bold" xml:space="preserve">App</text>
    </g>
    <g fill="rgb(255,204,0)" text-rendering="geometricPrecision" shape-rendering="geometricPrecision" transform="matrix(1,0,0,1,-19,-154)" stroke="rgb(255,204,0)">
      <circle r="15" clip-path="url(#clipPath2)" cx="576.5" cy="377" stroke="none"/>
    </g>
    <g text-rendering="geometricPrecision" stroke-miterlimit="1.45" shape-rendering="geometricPrecision" transform="matrix(1,0,0,1,-19,-154)" stroke-linecap="butt">
      <circle fill="none" r="15" clip-path="url(#clipPath2)" cx="576.5" cy="377"/>
      <text x="562.0693" font-size="14px" y="382.291" clip-path="url(#clipPath2)" font-family="sans-serif" stroke="none" font-weight="bold" xml:space="preserve">App</text>
    </g>
    <g fill="white" text-rendering="geometricPrecision" shape-rendering="geometricPrecision" transform="matrix(1,0,0,1,-19,-154)" stroke="white">
      <rect x="35" width="137" height="212" y="297" clip-path="url(#clipPath2)" stroke="none"/>
    </g>
    <g text-rendering="geometricPrecision" stroke-miterlimit="1.45" shape-rendering="geometricPrecision" transform="matrix(1,0,0,1,-19,-154)" stroke-linecap="butt">
      <rect fill="none" x="35" width="137" height="212" y="297" clip-path="url(#clipPath2)"/>
      <text x="62.416" font-size="14px" y="483.5586" clip-path="url(#clipPath2)" font-family="sans-serif" stroke="none" font-weight="bold" xml:space="preserve">Kubernetes</text>
      <text x="77.8071" font-size="14px" y="500.0469" clip-path="url(#clipPath2)" font-family="sans-serif" stroke="none" font-weight="bold" xml:space="preserve">Worker</text>
    </g>
    <g fill="white" text-rendering="geometricPrecision" shape-rendering="geometricPrecision" transform="matrix(1,0,0,1,-19,-154)" stroke="white">
      <rect x="35" width="137" height="73" y="524" clip-path="url(#clipPath2)" stroke="none"/>
    </g>
    <g text-rendering="geometricPrecision" stroke-miterlimit="1.45" shape-rendering="geometricPrecision" transform="matrix(1,0,0,1,-19,-154)" stroke-linecap="butt">
      <rect fill="none" x="35" width="137" height="73" y="524" clip-path="url(#clipPath2)"/>
      <text x="84.9097" font-size="14px" y="565.791" clip-path="url(#clipPath2)" font-family="sans-serif" stroke="none" font-weight="bold" xml:space="preserve">Node</text>
    </g>
    <g fill="rgb(255,204,0)" text-rendering="geometricPrecision" shape-rendering="geometricPrecision" transform="matrix(1,0,0,1,-19,-154)" stroke="rgb(255,204,0)">
      <circle r="15" clip-path="url(#clipPath2)" cx="103.5" cy="428" stroke="none"/>
    </g>
    <g text-rendering="geometricPrecision" stroke-miterlimit="1.45" shape-rendering="geometricPrecision" transform="matrix(1,0,0,1,-19,-154)" stroke-linecap="butt">
      <circle fill="none" r="15" clip-path="url(#clipPath2)" cx="103.5" cy="428"/>
      <text x="89.0693" font-size="14px" y="433.291" clip-path="url(#clipPath2)" font-family="sans-serif" stroke="none" font-weight="bold" xml:space="preserve">App</text>
      <text x="262.0811" xml:space="preserve" y="256.5352" clip-path="url(#clipPath2)" font-family="sans-serif" stroke="none">&lt;&lt;Requests&gt;&gt;</text>
    </g>
    <g fill="rgb(153,204,255)" text-rendering="geometricPrecision" shape-rendering="geometricPrecision" transform="matrix(1,0,0,1,-19,-154)" stroke="rgb(153,204,255)">
      <circle r="15" clip-path="url(#clipPath2)" cx="270.5" cy="446" stroke="none"/>
    </g>
    <g text-rendering="geometricPrecision" stroke-miterlimit="1.45" shape-rendering="geometricPrecision" transform="matrix(1,0,0,1,-19,-154)" stroke-linecap="butt">
      <circle fill="none" r="15" clip-path="url(#clipPath2)" cx="270.5" cy="446"/>
      <text x="266.0908" font-size="14px" y="451.291" clip-path="url(#clipPath2)" font-family="sans-serif" stroke="none" font-weight="bold" xml:space="preserve">B</text>
      <rect x="231" y="349" clip-path="url(#clipPath2)" fill="none" width="60.5" stroke-dasharray="12,4" height="22" stroke-width="2"/>
      <text x="235.7109" font-size="14px" y="365.291" clip-path="url(#clipPath2)" font-family="sans-serif" stroke="none" font-weight="bold" xml:space="preserve">Service</text>
    </g>
    <g fill="rgb(255,204,0)" text-rendering="geometricPrecision" shape-rendering="geometricPrecision" transform="matrix(1,0,0,1,-19,-154)" stroke="rgb(255,204,0)">
      <rect x="561.5" width="49.5" height="30" y="280" clip-path="url(#clipPath2)" stroke="none"/>
    </g>
    <g text-rendering="geometricPrecision" stroke-miterlimit="1.45" shape-rendering="geometricPrecision" transform="matrix(1,0,0,1,-19,-154)" stroke-linecap="butt">
      <rect fill="none" x="561.5" width="49.5" height="30" y="280" clip-path="url(#clipPath2)"/>
      <text x="571.4673" font-size="14px" y="292.0469" clip-path="url(#clipPath2)" font-family="sans-serif" stroke="none" font-weight="bold" xml:space="preserve">Port</text>
      <text x="563.1616" font-size="14px" y="308.5352" clip-path="url(#clipPath2)" font-family="sans-serif" stroke="none" font-weight="bold" xml:space="preserve">30000</text>
    </g>
    <g fill="rgb(255,204,0)" text-rendering="geometricPrecision" shape-rendering="geometricPrecision" transform="matrix(1,0,0,1,-19,-154)" stroke="rgb(255,204,0)">
      <rect x="48" width="49.5" height="30" y="280" clip-path="url(#clipPath2)" stroke="none"/>
    </g>
    <g text-rendering="geometricPrecision" stroke-miterlimit="1.45" shape-rendering="geometricPrecision" transform="matrix(1,0,0,1,-19,-154)" stroke-linecap="butt">
      <rect fill="none" x="48" width="49.5" height="30" y="280" clip-path="url(#clipPath2)"/>
      <text x="57.9673" font-size="14px" y="292.0469" clip-path="url(#clipPath2)" font-family="sans-serif" stroke="none" font-weight="bold" xml:space="preserve">Port</text>
      <text x="49.6616" font-size="14px" y="308.5352" clip-path="url(#clipPath2)" font-family="sans-serif" stroke="none" font-weight="bold" xml:space="preserve">30000</text>
    </g>
    <g fill="rgb(255,204,0)" text-rendering="geometricPrecision" shape-rendering="geometricPrecision" transform="matrix(1,0,0,1,-19,-154)" stroke="rgb(255,204,0)">
      <rect x="379" width="49.5" height="30" y="280" clip-path="url(#clipPath2)" stroke="none"/>
    </g>
    <g text-rendering="geometricPrecision" stroke-miterlimit="1.45" shape-rendering="geometricPrecision" transform="matrix(1,0,0,1,-19,-154)" stroke-linecap="butt">
      <rect fill="none" x="379" width="49.5" height="30" y="280" clip-path="url(#clipPath2)"/>
      <text x="388.9673" font-size="14px" y="292.0469" clip-path="url(#clipPath2)" font-family="sans-serif" stroke="none" font-weight="bold" xml:space="preserve">Port</text>
      <text x="380.6616" font-size="14px" y="308.5352" clip-path="url(#clipPath2)" font-family="sans-serif" stroke="none" font-weight="bold" xml:space="preserve">30000</text>
    </g>
    <g fill="rgb(255,204,0)" text-rendering="geometricPrecision" shape-rendering="geometricPrecision" transform="matrix(1,0,0,1,-19,-154)" stroke="rgb(255,204,0)">
      <rect x="438" width="186" height="51" y="183" clip-path="url(#clipPath2)" stroke="none"/>
    </g>
    <g text-rendering="geometricPrecision" stroke-miterlimit="1.45" shape-rendering="geometricPrecision" transform="matrix(1,0,0,1,-19,-154)" stroke-linecap="butt">
      <rect fill="none" x="438" width="186" height="51" y="183" clip-path="url(#clipPath2)"/>
      <text x="490.7197" xml:space="preserve" y="213.0352" clip-path="url(#clipPath2)" font-family="sans-serif" stroke="none">Load Balancer</text>
      <path fill="none" d="M261.45 212.86 L244.2958 272.3136" clip-path="url(#clipPath2)"/>
      <path d="M242.078 280 L250.2087 269.8564 L244.573 271.3528 L240.6006 267.0842 Z" clip-path="url(#clipPath2)" stroke="none"/>
      <path fill="none" d="M243.1731 310 L254.5531 341.4766" clip-path="url(#clipPath2)"/>
      <path d="M257.2731 349 L257.8952 336.0149 L254.2131 340.5362 L248.491 339.4149 Z" clip-path="url(#clipPath2)" stroke="none"/>
      <path fill="none" d="M268.8959 431.086 L263.2887 378.9541" clip-path="url(#clipPath2)"/>
      <path d="M262.4331 371 L258.7451 383.4659 L263.3956 379.9484 L268.6877 382.3965 Z" clip-path="url(#clipPath2)" stroke="none"/>
      <path fill="none" d="M291.5048 361.8713 L553.5323 375.7808" clip-path="url(#clipPath2)"/>
      <path d="M561.5211 376.2049 L549.803 370.5758 L552.5338 375.7278 L549.2729 380.5617 Z" clip-path="url(#clipPath2)" stroke="none"/>
      <path fill="none" d="M235.7316 371 L124.6212 418.8954" clip-path="url(#clipPath2)"/>
      <path d="M117.2747 422.0623 L130.2738 421.9036 L125.5396 418.4996 L126.3152 412.7205 Z" clip-path="url(#clipPath2)" stroke="none"/>
      <path fill="none" d="M289.761 371 L416.0417 419.721" clip-path="url(#clipPath2)"/>
      <path d="M423.5054 422.6007 L414.1096 413.6164 L415.1087 419.3611 L410.51 422.9461 Z" clip-path="url(#clipPath2)" stroke="none"/>
      <path fill="none" d="M493.487 234 L432.4326 275.5026" clip-path="url(#clipPath2)"/>
      <path d="M425.8165 280 L438.5516 277.389 L433.2596 274.9404 L432.9298 269.1188 Z" clip-path="url(#clipPath2)" stroke="none"/>
      <path fill="none" d="M547.2876 234 L572.3627 273.2579" clip-path="url(#clipPath2)"/>
      <path d="M576.6691 280 L574.4233 267.1954 L571.8245 272.4152 L565.9958 272.5784 Z" clip-path="url(#clipPath2)" stroke="none"/>
    </g>
  </g>
</svg>
